<?xml version="1.0" encoding="utf-8" standalone="no"?>
<!DOCTYPE svg PUBLIC "-//W3C//DTD SVG 1.1//EN"
  "http://www.w3.org/Graphics/SVG/1.1/DTD/svg11.dtd">
<!-- Created with matplotlib (https://matplotlib.org/) -->
<svg height="216pt" version="1.1" viewBox="0 0 648 216" width="648pt" xmlns="http://www.w3.org/2000/svg" xmlns:xlink="http://www.w3.org/1999/xlink">
 <metadata>
  <rdf:RDF xmlns:cc="http://creativecommons.org/ns#" xmlns:dc="http://purl.org/dc/elements/1.1/" xmlns:rdf="http://www.w3.org/1999/02/22-rdf-syntax-ns#">
   <cc:Work>
    <dc:type rdf:resource="http://purl.org/dc/dcmitype/StillImage"/>
    <dc:date>2021-09-29T17:20:22.207001</dc:date>
    <dc:format>image/svg+xml</dc:format>
    <dc:creator>
     <cc:Agent>
      <dc:title>Matplotlib v3.3.2, https://matplotlib.org/</dc:title>
     </cc:Agent>
    </dc:creator>
   </cc:Work>
  </rdf:RDF>
 </metadata>
 <defs>
  <style type="text/css">*{stroke-linecap:butt;stroke-linejoin:round;}</style>
 </defs>
 <g id="figure_1">
  <g id="patch_1">
   <path d="M 0 216 
L 648 216 
L 648 0 
L 0 0 
z
" style="fill:#ffffff;"/>
  </g>
  <g id="axes_1">
   <g id="patch_2">
    <path d="M 21.234646 197.861354 
L 645.165354 197.861354 
L 645.165354 2.834646 
L 21.234646 2.834646 
z
" style="fill:#ffffff;"/>
   </g>
   <g id="PathCollection_1">
    <defs>
     <path d="M 0 5 
C 1.326016 5 2.597899 4.473168 3.535534 3.535534 
C 4.473168 2.597899 5 1.326016 5 0 
C 5 -1.326016 4.473168 -2.597899 3.535534 -3.535534 
C 2.597899 -4.473168 1.326016 -5 0 -5 
C -1.326016 -5 -2.597899 -4.473168 -3.535534 -3.535534 
C -4.473168 -2.597899 -5 -1.326016 -5 0 
C -5 1.326016 -4.473168 2.597899 -3.535534 3.535534 
C -2.597899 4.473168 -1.326016 5 0 5 
z
" id="mbc588738d4" style="stroke:#000000;"/>
    </defs>
    <g clip-path="url(#p8a3d7982a6)">
     <use style="fill:#009afa;stroke:#000000;" x="38.893062" xlink:href="#mbc588738d4" y="190.364328"/>
     <use style="fill:#009afa;stroke:#000000;" x="44.838657" xlink:href="#mbc588738d4" y="191.249839"/>
     <use style="fill:#009afa;stroke:#000000;" x="50.784251" xlink:href="#mbc588738d4" y="191.680879"/>
     <use style="fill:#009afa;stroke:#000000;" x="56.729846" xlink:href="#mbc588738d4" y="191.869966"/>
     <use style="fill:#009afa;stroke:#000000;" x="62.675441" xlink:href="#mbc588738d4" y="191.90653"/>
     <use style="fill:#009afa;stroke:#000000;" x="68.621035" xlink:href="#mbc588738d4" y="191.7862"/>
     <use style="fill:#009afa;stroke:#000000;" x="74.56663" xlink:href="#mbc588738d4" y="191.374951"/>
     <use style="fill:#009afa;stroke:#000000;" x="80.512225" xlink:href="#mbc588738d4" y="190.330731"/>
     <use style="fill:#009afa;stroke:#000000;" x="86.45782" xlink:href="#mbc588738d4" y="188.347753"/>
     <use style="fill:#009afa;stroke:#000000;" x="92.403414" xlink:href="#mbc588738d4" y="186.417612"/>
     <use style="fill:#009afa;stroke:#000000;" x="98.349009" xlink:href="#mbc588738d4" y="186.883662"/>
     <use style="fill:#009afa;stroke:#000000;" x="104.294604" xlink:href="#mbc588738d4" y="189.442029"/>
     <use style="fill:#009afa;stroke:#000000;" x="110.240198" xlink:href="#mbc588738d4" y="191.42684"/>
     <use style="fill:#009afa;stroke:#000000;" x="116.185793" xlink:href="#mbc588738d4" y="192.152615"/>
     <use style="fill:#009afa;stroke:#000000;" x="122.131388" xlink:href="#mbc588738d4" y="192.311913"/>
     <use style="fill:#009afa;stroke:#000000;" x="128.076983" xlink:href="#mbc588738d4" y="192.337319"/>
     <use style="fill:#009afa;stroke:#000000;" x="134.022577" xlink:href="#mbc588738d4" y="192.341004"/>
     <use style="fill:#009afa;stroke:#000000;" x="139.968172" xlink:href="#mbc588738d4" y="192.341614"/>
     <use style="fill:#009afa;stroke:#000000;" x="145.913767" xlink:href="#mbc588738d4" y="192.341731"/>
     <use style="fill:#009afa;stroke:#000000;" x="151.859361" xlink:href="#mbc588738d4" y="192.341729"/>
     <use style="fill:#009afa;stroke:#000000;" x="157.804956" xlink:href="#mbc588738d4" y="192.341685"/>
     <use style="fill:#009afa;stroke:#000000;" x="163.750551" xlink:href="#mbc588738d4" y="192.341634"/>
     <use style="fill:#009afa;stroke:#000000;" x="169.696146" xlink:href="#mbc588738d4" y="192.341582"/>
     <use style="fill:#009afa;stroke:#000000;" x="175.64174" xlink:href="#mbc588738d4" y="192.341512"/>
     <use style="fill:#009afa;stroke:#000000;" x="181.587335" xlink:href="#mbc588738d4" y="192.341415"/>
     <use style="fill:#009afa;stroke:#000000;" x="187.53293" xlink:href="#mbc588738d4" y="192.341314"/>
     <use style="fill:#009afa;stroke:#000000;" x="193.478524" xlink:href="#mbc588738d4" y="192.341213"/>
     <use style="fill:#009afa;stroke:#000000;" x="199.424119" xlink:href="#mbc588738d4" y="192.341016"/>
     <use style="fill:#009afa;stroke:#000000;" x="205.369714" xlink:href="#mbc588738d4" y="192.340428"/>
     <use style="fill:#009afa;stroke:#000000;" x="211.315308" xlink:href="#mbc588738d4" y="192.338538"/>
     <use style="fill:#009afa;stroke:#000000;" x="217.260903" xlink:href="#mbc588738d4" y="192.332617"/>
     <use style="fill:#009afa;stroke:#000000;" x="223.206498" xlink:href="#mbc588738d4" y="192.318007"/>
     <use style="fill:#009afa;stroke:#000000;" x="229.152093" xlink:href="#mbc588738d4" y="192.29804"/>
     <use style="fill:#009afa;stroke:#000000;" x="235.097687" xlink:href="#mbc588738d4" y="192.292452"/>
     <use style="fill:#009afa;stroke:#000000;" x="241.043282" xlink:href="#mbc588738d4" y="192.30644"/>
     <use style="fill:#009afa;stroke:#000000;" x="246.988877" xlink:href="#mbc588738d4" y="192.321882"/>
     <use style="fill:#009afa;stroke:#000000;" x="252.934471" xlink:href="#mbc588738d4" y="192.329638"/>
     <use style="fill:#009afa;stroke:#000000;" x="258.880066" xlink:href="#mbc588738d4" y="192.330789"/>
     <use style="fill:#009afa;stroke:#000000;" x="264.825661" xlink:href="#mbc588738d4" y="192.324324"/>
     <use style="fill:#009afa;stroke:#000000;" x="270.771256" xlink:href="#mbc588738d4" y="192.295924"/>
     <use style="fill:#009afa;stroke:#000000;" x="276.71685" xlink:href="#mbc588738d4" y="192.18355"/>
     <use style="fill:#009afa;stroke:#000000;" x="282.662445" xlink:href="#mbc588738d4" y="191.78355"/>
     <use style="fill:#009afa;stroke:#000000;" x="288.60804" xlink:href="#mbc588738d4" y="190.562357"/>
     <use style="fill:#009afa;stroke:#000000;" x="294.553634" xlink:href="#mbc588738d4" y="187.026793"/>
     <use style="fill:#009afa;stroke:#000000;" x="300.499229" xlink:href="#mbc588738d4" y="176.153605"/>
     <use style="fill:#009afa;stroke:#000000;" x="306.444824" xlink:href="#mbc588738d4" y="143.367818"/>
     <use style="fill:#009afa;stroke:#000000;" x="312.390419" xlink:href="#mbc588738d4" y="71.752187"/>
     <use style="fill:#009afa;stroke:#000000;" x="318.336013" xlink:href="#mbc588738d4" y="8.354269"/>
     <use style="fill:#009afa;stroke:#000000;" x="324.281608" xlink:href="#mbc588738d4" y="43.042935"/>
     <use style="fill:#009afa;stroke:#000000;" x="330.227203" xlink:href="#mbc588738d4" y="120.385506"/>
     <use style="fill:#009afa;stroke:#000000;" x="336.172797" xlink:href="#mbc588738d4" y="162.958976"/>
     <use style="fill:#009afa;stroke:#000000;" x="342.118392" xlink:href="#mbc588738d4" y="176.815829"/>
     <use style="fill:#009afa;stroke:#000000;" x="348.063987" xlink:href="#mbc588738d4" y="178.436793"/>
     <use style="fill:#009afa;stroke:#000000;" x="354.009581" xlink:href="#mbc588738d4" y="171.555217"/>
     <use style="fill:#009afa;stroke:#000000;" x="359.955176" xlink:href="#mbc588738d4" y="153.059601"/>
     <use style="fill:#009afa;stroke:#000000;" x="365.900771" xlink:href="#mbc588738d4" y="129.40942"/>
     <use style="fill:#009afa;stroke:#000000;" x="371.846366" xlink:href="#mbc588738d4" y="131.97637"/>
     <use style="fill:#009afa;stroke:#000000;" x="377.79196" xlink:href="#mbc588738d4" y="162.836761"/>
     <use style="fill:#009afa;stroke:#000000;" x="383.737555" xlink:href="#mbc588738d4" y="184.339854"/>
     <use style="fill:#009afa;stroke:#000000;" x="389.68315" xlink:href="#mbc588738d4" y="190.715387"/>
     <use style="fill:#009afa;stroke:#000000;" x="395.628744" xlink:href="#mbc588738d4" y="191.974678"/>
     <use style="fill:#009afa;stroke:#000000;" x="401.574339" xlink:href="#mbc588738d4" y="192.21598"/>
     <use style="fill:#009afa;stroke:#000000;" x="407.519934" xlink:href="#mbc588738d4" y="192.269452"/>
     <use style="fill:#009afa;stroke:#000000;" x="413.465529" xlink:href="#mbc588738d4" y="192.279658"/>
     <use style="fill:#009afa;stroke:#000000;" x="419.411123" xlink:href="#mbc588738d4" y="192.276598"/>
     <use style="fill:#009afa;stroke:#000000;" x="425.356718" xlink:href="#mbc588738d4" y="192.267706"/>
     <use style="fill:#009afa;stroke:#000000;" x="431.302313" xlink:href="#mbc588738d4" y="192.247774"/>
     <use style="fill:#009afa;stroke:#000000;" x="437.247907" xlink:href="#mbc588738d4" y="192.19302"/>
     <use style="fill:#009afa;stroke:#000000;" x="443.193502" xlink:href="#mbc588738d4" y="192.032663"/>
     <use style="fill:#009afa;stroke:#000000;" x="449.139097" xlink:href="#mbc588738d4" y="191.57123"/>
     <use style="fill:#009afa;stroke:#000000;" x="455.084692" xlink:href="#mbc588738d4" y="190.448016"/>
     <use style="fill:#009afa;stroke:#000000;" x="461.030286" xlink:href="#mbc588738d4" y="188.502315"/>
     <use style="fill:#009afa;stroke:#000000;" x="466.975881" xlink:href="#mbc588738d4" y="186.196373"/>
     <use style="fill:#009afa;stroke:#000000;" x="472.921476" xlink:href="#mbc588738d4" y="183.646502"/>
     <use style="fill:#009afa;stroke:#000000;" x="478.86707" xlink:href="#mbc588738d4" y="179.332754"/>
     <use style="fill:#009afa;stroke:#000000;" x="484.812665" xlink:href="#mbc588738d4" y="169.525449"/>
     <use style="fill:#009afa;stroke:#000000;" x="490.75826" xlink:href="#mbc588738d4" y="148.132744"/>
     <use style="fill:#009afa;stroke:#000000;" x="496.703854" xlink:href="#mbc588738d4" y="113.565052"/>
     <use style="fill:#009afa;stroke:#000000;" x="502.649449" xlink:href="#mbc588738d4" y="83.547599"/>
     <use style="fill:#009afa;stroke:#000000;" x="508.595044" xlink:href="#mbc588738d4" y="79.617116"/>
     <use style="fill:#009afa;stroke:#000000;" x="514.540639" xlink:href="#mbc588738d4" y="93.364714"/>
     <use style="fill:#009afa;stroke:#000000;" x="520.486233" xlink:href="#mbc588738d4" y="104.911254"/>
     <use style="fill:#009afa;stroke:#000000;" x="526.431828" xlink:href="#mbc588738d4" y="107.908976"/>
     <use style="fill:#009afa;stroke:#000000;" x="532.377423" xlink:href="#mbc588738d4" y="109.056666"/>
     <use style="fill:#009afa;stroke:#000000;" x="538.323017" xlink:href="#mbc588738d4" y="120.877221"/>
     <use style="fill:#009afa;stroke:#000000;" x="544.268612" xlink:href="#mbc588738d4" y="145.080363"/>
     <use style="fill:#009afa;stroke:#000000;" x="550.214207" xlink:href="#mbc588738d4" y="167.617439"/>
     <use style="fill:#009afa;stroke:#000000;" x="556.159802" xlink:href="#mbc588738d4" y="180.105385"/>
     <use style="fill:#009afa;stroke:#000000;" x="562.105396" xlink:href="#mbc588738d4" y="185.146463"/>
     <use style="fill:#009afa;stroke:#000000;" x="568.050991" xlink:href="#mbc588738d4" y="186.640934"/>
     <use style="fill:#009afa;stroke:#000000;" x="573.996586" xlink:href="#mbc588738d4" y="186.704141"/>
     <use style="fill:#009afa;stroke:#000000;" x="579.94218" xlink:href="#mbc588738d4" y="186.927485"/>
     <use style="fill:#009afa;stroke:#000000;" x="585.887775" xlink:href="#mbc588738d4" y="188.482122"/>
     <use style="fill:#009afa;stroke:#000000;" x="591.83337" xlink:href="#mbc588738d4" y="190.484724"/>
     <use style="fill:#009afa;stroke:#000000;" x="597.778965" xlink:href="#mbc588738d4" y="191.626227"/>
     <use style="fill:#009afa;stroke:#000000;" x="603.724559" xlink:href="#mbc588738d4" y="192.025883"/>
     <use style="fill:#009afa;stroke:#000000;" x="609.670154" xlink:href="#mbc588738d4" y="192.115756"/>
     <use style="fill:#009afa;stroke:#000000;" x="615.615749" xlink:href="#mbc588738d4" y="192.036537"/>
     <use style="fill:#009afa;stroke:#000000;" x="621.561343" xlink:href="#mbc588738d4" y="191.636282"/>
     <use style="fill:#009afa;stroke:#000000;" x="627.506938" xlink:href="#mbc588738d4" y="190.200176"/>
    </g>
   </g>
   <g id="matplotlib.axis_1">
    <g id="text_1">
     <!-- $x_m$ -->
     <g transform="translate(325.995 210.219636)scale(0.11 -0.11)">
      <defs>
       <path d="M 60.015625 54.6875 
L 34.90625 27.875 
L 50.296875 0 
L 39.984375 0 
L 28.421875 21.6875 
L 8.296875 0 
L -2.59375 0 
L 24.3125 28.8125 
L 10.015625 54.6875 
L 20.3125 54.6875 
L 30.8125 34.90625 
L 49.125 54.6875 
z
" id="DejaVuSans-Oblique-120"/>
       <path d="M 89.796875 33.015625 
L 83.40625 0 
L 74.421875 0 
L 80.71875 32.71875 
Q 81.109375 34.8125 81.296875 36.328125 
Q 81.5 37.84375 81.5 38.921875 
Q 81.5 43.3125 79.046875 45.75 
Q 76.609375 48.1875 72.21875 48.1875 
Q 65.671875 48.1875 60.546875 43.28125 
Q 55.421875 38.375 53.90625 30.515625 
L 47.90625 0 
L 38.921875 0 
L 45.3125 32.71875 
Q 45.703125 34.515625 45.890625 36.046875 
Q 46.09375 37.59375 46.09375 38.8125 
Q 46.09375 43.265625 43.65625 45.71875 
Q 41.21875 48.1875 36.921875 48.1875 
Q 30.28125 48.1875 25.140625 43.28125 
Q 20.015625 38.375 18.5 30.515625 
L 12.5 0 
L 3.515625 0 
L 14.203125 54.6875 
L 23.1875 54.6875 
L 21.484375 46.1875 
Q 25.140625 50.984375 30.046875 53.484375 
Q 34.96875 56 40.578125 56 
Q 46.53125 56 50.359375 52.875 
Q 54.203125 49.75 54.984375 44.1875 
Q 59.078125 49.953125 64.46875 52.96875 
Q 69.875 56 75.875 56 
Q 82.90625 56 86.734375 51.953125 
Q 90.578125 47.90625 90.578125 40.484375 
Q 90.578125 38.875 90.375 36.9375 
Q 90.1875 35.015625 89.796875 33.015625 
z
" id="DejaVuSans-Oblique-109"/>
      </defs>
      <use transform="translate(0 0.3125)" xlink:href="#DejaVuSans-Oblique-120"/>
      <use transform="translate(59.179688 -16.09375)scale(0.7)" xlink:href="#DejaVuSans-Oblique-109"/>
     </g>
    </g>
   </g>
   <g id="matplotlib.axis_2">
    <g id="text_2">
     <!-- $p(x_m|r)$ -->
     <g transform="translate(14.594646 119.433)rotate(-90)scale(0.11 -0.11)">
      <defs>
       <path d="M 49.609375 33.6875 
Q 49.609375 40.875 46.484375 44.671875 
Q 43.359375 48.484375 37.5 48.484375 
Q 33.5 48.484375 29.859375 46.4375 
Q 26.21875 44.390625 23.390625 40.484375 
Q 20.609375 36.625 18.9375 31.15625 
Q 17.28125 25.6875 17.28125 20.3125 
Q 17.28125 13.484375 20.40625 9.796875 
Q 23.53125 6.109375 29.296875 6.109375 
Q 33.546875 6.109375 37.1875 8.109375 
Q 40.828125 10.109375 43.40625 13.921875 
Q 46.1875 17.921875 47.890625 23.34375 
Q 49.609375 28.765625 49.609375 33.6875 
z
M 21.78125 46.390625 
Q 25.390625 51.125 30.296875 53.5625 
Q 35.203125 56 41.21875 56 
Q 49.609375 56 54.25 50.5 
Q 58.890625 45.015625 58.890625 35.109375 
Q 58.890625 27 56 19.65625 
Q 53.125 12.3125 47.703125 6.5 
Q 44.09375 2.640625 39.546875 0.609375 
Q 35.015625 -1.421875 29.984375 -1.421875 
Q 24.171875 -1.421875 20.21875 1 
Q 16.265625 3.421875 14.3125 8.203125 
L 8.6875 -20.796875 
L -0.296875 -20.796875 
L 14.40625 54.6875 
L 23.390625 54.6875 
z
" id="DejaVuSans-Oblique-112"/>
       <path d="M 31 75.875 
Q 24.46875 64.65625 21.28125 53.65625 
Q 18.109375 42.671875 18.109375 31.390625 
Q 18.109375 20.125 21.3125 9.0625 
Q 24.515625 -2 31 -13.1875 
L 23.1875 -13.1875 
Q 15.875 -1.703125 12.234375 9.375 
Q 8.59375 20.453125 8.59375 31.390625 
Q 8.59375 42.28125 12.203125 53.3125 
Q 15.828125 64.359375 23.1875 75.875 
z
" id="DejaVuSans-40"/>
       <path d="M 21 76.421875 
L 21 -23.578125 
L 12.703125 -23.578125 
L 12.703125 76.421875 
z
" id="DejaVuSans-124"/>
       <path d="M 44.578125 46.390625 
Q 43.21875 47.125 41.453125 47.515625 
Q 39.703125 47.90625 37.703125 47.90625 
Q 30.515625 47.90625 25.140625 42.453125 
Q 19.78125 37.015625 18.015625 27.875 
L 12.5 0 
L 3.515625 0 
L 14.203125 54.6875 
L 23.1875 54.6875 
L 21.484375 46.1875 
Q 25.046875 50.921875 30 53.453125 
Q 34.96875 56 40.578125 56 
Q 42.046875 56 43.453125 55.828125 
Q 44.875 55.671875 46.296875 55.28125 
z
" id="DejaVuSans-Oblique-114"/>
       <path d="M 8.015625 75.875 
L 15.828125 75.875 
Q 23.140625 64.359375 26.78125 53.3125 
Q 30.421875 42.28125 30.421875 31.390625 
Q 30.421875 20.453125 26.78125 9.375 
Q 23.140625 -1.703125 15.828125 -13.1875 
L 8.015625 -13.1875 
Q 14.5 -2 17.703125 9.0625 
Q 20.90625 20.125 20.90625 31.390625 
Q 20.90625 42.671875 17.703125 53.65625 
Q 14.5 64.65625 8.015625 75.875 
z
" id="DejaVuSans-41"/>
      </defs>
      <use transform="translate(0 0.578125)" xlink:href="#DejaVuSans-Oblique-112"/>
      <use transform="translate(63.476562 0.578125)" xlink:href="#DejaVuSans-40"/>
      <use transform="translate(102.490234 0.578125)" xlink:href="#DejaVuSans-Oblique-120"/>
      <use transform="translate(161.669922 -15.828125)scale(0.7)" xlink:href="#DejaVuSans-Oblique-109"/>
      <use transform="translate(232.592773 0.578125)" xlink:href="#DejaVuSans-124"/>
      <use transform="translate(266.28418 0.578125)" xlink:href="#DejaVuSans-Oblique-114"/>
      <use transform="translate(307.397461 0.578125)" xlink:href="#DejaVuSans-41"/>
     </g>
    </g>
   </g>
   <g id="patch_3">
    <path d="M 21.234646 197.861354 
L 21.234646 2.834646 
" style="fill:none;stroke:#000000;stroke-linecap:square;stroke-linejoin:miter;"/>
   </g>
   <g id="patch_4">
    <path d="M 21.234646 197.861354 
L 645.165354 197.861354 
" style="fill:none;stroke:#000000;stroke-linecap:square;stroke-linejoin:miter;"/>
   </g>
  </g>
 </g>
 <defs>
  <clipPath id="p8a3d7982a6">
   <rect height="195.026709" width="623.930709" x="21.234646" y="2.834646"/>
  </clipPath>
 </defs>
</svg>
